<svg width="209" height="97" viewBox="0 0 209 97" fill="none" xmlns="http://www.w3.org/2000/svg">
<path fill-rule="evenodd" clip-rule="evenodd" d="M48.8031 75.9722C56.6696 75.9814 66.5809 75.9904 72 76C61.9412 50.6666 51.883 25.3333 41.8243 0H23.4092C36.0255 24.4048 1.35515 34.3693 0.049907 54.9081C-0.429831 62.4549 2.53925 70.759 9.38308 73.8019C-2.53232 58.7977 8.04969 36.1425 27.8058 36.1425C40.7519 36.1425 51.2507 46.5625 51.2507 59.4112C51.2508 65.8951 48.5763 71.7593 44.2636 75.9794C46.2969 75.9692 47.7575 75.949 48.8816 75.8731L48.8031 75.9722Z" fill="#953E37"/>
<path d="M173 44.7232H187.366V49.8151C189.016 47.7262 190.677 46.24 192.367 45.3459C194.057 44.4521 196.105 44 198.531 44C201.812 44 204.367 44.9845 206.226 46.963C208.075 48.9311 209 51.9846 209 56.1128V76H197.069V58.7949C197.069 56.8262 196.712 55.4396 195.995 54.6261C195.28 53.8126 194.276 53.4009 192.983 53.4009C191.562 53.4009 190.399 53.9534 189.514 55.0482C188.629 56.1527 188.181 58.1215 188.181 60.9742V76H181.61C181.068 74.833 180.707 73.8637 180.541 73.0921C180.353 72.2582 180.263 71.1035 180.263 69.6267V55.8064C180.263 54.3298 179.974 52.7831 179.388 51.1662C178.811 49.5489 178.009 48.2989 177.002 47.4095C175.968 46.497 174.527 45.4103 173 44.7232Z" fill="#953E37"/>
<path d="M156.465 55.6076L149.565 54.8967C149.405 53.3814 148.347 50.8839 147.333 49.2434C148.107 48.3487 149.127 47.5611 150.403 46.8758C151.497 46.2764 153.003 45.815 154.92 45.4906C156.837 45.167 158.914 45 161.152 45C164.735 45 167.606 45.1961 169.783 45.5888C171.951 45.9819 173.767 46.807 175.213 48.0543C176.236 48.9187 177.039 50.1464 177.621 51.728C178.213 53.3092 178.505 54.8217 178.505 56.2657V69.7806C178.505 71.2248 178.595 72.3539 178.786 73.1695C178.967 73.9849 179.378 75.026 180 76.293H168.79C168.338 75.5069 168.047 74.9175 167.906 74.5055C167.776 74.0926 167.635 73.4543 167.495 72.5803C165.929 74.0535 164.374 75.1047 162.818 75.7332C160.7 76.5776 158.242 77 155.442 77C151.718 77 148.888 76.1549 146.961 74.4559C146.609 74.1482 146.288 73.8274 146 73.4932C146.965 72.786 147.743 71.978 148.333 71.0683C149.428 69.3979 149.97 67.6791 149.97 65.9113C149.97 64.1627 149.459 62.5619 148.425 61.0982C148.376 61.0287 148.326 60.9598 148.275 60.8919C149.69 60.1486 151.55 59.5518 153.856 59.1038C158.342 58.2198 161.252 57.6012 162.587 57.2378C163.922 56.8842 165.337 56.4228 166.823 55.8436C166.823 54.3993 166.521 53.3979 165.909 52.8179C165.307 52.2387 164.244 51.9541 162.718 51.9541C160.761 51.9541 159.295 52.2582 158.312 52.8772C157.549 53.3685 156.937 54.2719 156.465 55.6076ZM166.823 61.7364C165.177 62.3161 163.461 62.8272 161.664 63.279C159.235 63.9172 157.69 64.5457 157.047 65.1644C156.375 65.8028 156.044 66.5301 156.044 67.345C156.044 68.2778 156.375 69.0443 157.027 69.6338C157.69 70.2225 158.653 70.5177 159.928 70.5177C161.263 70.5177 162.507 70.1934 163.661 69.555C164.805 68.917 165.618 68.1406 166.1 67.2171C166.581 66.2943 166.823 65.0954 166.823 63.6227V61.7364Z" fill="#953E37"/>
<path d="M126.207 65.8094L126.909 65.7459C127.396 67.1213 128.071 68.1032 128.945 68.6923C129.819 69.2817 130.981 69.5761 132.44 69.5761C134.029 69.5761 135.261 69.2427 136.134 68.5648C136.819 68.0734 137.157 67.4449 137.157 66.6989C137.157 65.8536 136.71 65.196 135.817 64.7338C135.181 64.4099 133.483 64.0071 130.732 63.5264C129 63.2284 127.492 62.9392 126.207 62.6586V55.5739C126.207 54.1304 125.918 52.618 125.333 51.0364C124.756 49.455 123.962 48.2273 122.95 47.3627C122.362 46.8496 121.711 46.4082 121 46.0388C121.65 45.6674 122.362 45.3476 123.136 45.0803C125.211 44.3633 127.991 44 131.477 44C135.151 44 137.872 44.275 139.619 44.8345C141.377 45.3949 142.836 46.2588 144.009 47.4281C145.18 48.6063 146.153 50.1879 146.928 52.1917L135.727 53.2527C135.439 52.2802 134.952 51.5626 134.277 51.101C133.353 50.4919 132.232 50.1879 130.911 50.1879C129.581 50.1879 128.607 50.4238 128.001 50.895C127.396 51.3663 127.088 51.9365 127.088 52.6037C127.088 53.3605 127.475 53.9203 128.24 54.303C129.005 54.6962 130.692 55.04 133.284 55.3441C137.227 55.786 140.145 56.4048 142.072 57.1908C143.989 57.9766 145.459 59.0966 146.471 60.5596C147.494 62.0231 148 63.6244 148 65.3727C148 67.1407 147.464 68.8593 146.382 70.5291C145.309 72.1988 143.611 73.525 141.298 74.5169C138.984 75.5087 135.826 76 131.834 76C130.409 76 129.088 75.9494 127.87 75.8475C127.294 74.6446 126.65 73.21 126.485 72.4781C126.301 71.6614 126.207 70.5334 126.207 69.0888V65.8094Z" fill="#953E37"/>
<path d="M101.77 54.9392L96.7009 54.4161L101.29 44.4244L101.143 44.358C102.844 44.1215 104.662 44 106.596 44C110.285 44 113.24 44.2023 115.482 44.6075C117.714 45.0129 119.584 45.8635 121.071 47.1499C122.125 48.0415 122.952 49.3076 123.552 50.9384C124.161 52.5694 124.461 54.1291 124.461 55.6177V69.555C124.461 71.0447 124.554 72.2086 124.75 73.0503C124.936 73.8905 125.36 74.9644 126 76.2708H114.459C113.994 75.4607 113.695 74.8525 113.549 74.4276C113.415 74.0019 113.271 73.3437 113.126 72.4421C111.514 73.9619 109.913 75.0455 108.311 75.6939C106.131 76.5644 103.6 77 100.717 77C96.8838 77 93.9694 76.1286 91.9858 74.3767C89.992 72.6346 89 70.4766 89 67.9245C89 65.5238 89.7134 63.5486 91.149 61.9989C92.5857 60.449 95.2303 59.2951 99.0848 58.5451C103.703 57.6334 106.699 56.9952 108.073 56.6203C109.448 56.2557 110.905 55.7799 112.434 55.1826C112.434 53.6934 112.124 52.6603 111.494 52.0624C110.873 51.4653 109.779 51.1718 108.208 51.1718C106.193 51.1718 104.685 51.4852 103.672 52.1234C102.886 52.6303 102.257 53.5617 101.77 54.9392ZM112.434 61.2594C110.739 61.8575 108.972 62.3844 107.123 62.8501C104.622 63.5086 103.031 64.1566 102.37 64.7947C101.678 65.4531 101.337 66.2032 101.337 67.0436C101.337 68.0053 101.678 68.7957 102.35 69.4037C103.031 70.011 104.024 70.3151 105.336 70.3151C106.71 70.3151 107.991 69.9807 109.179 69.3227C110.357 68.6643 111.194 67.8642 111.69 66.9116C112.185 65.9598 112.434 64.7235 112.434 63.2051V61.2594Z" fill="#953E37"/>
<path d="M73 45.7006H85.0888V50.6431C86.1326 48.4931 87.205 47.0141 88.307 46.2067C89.4179 45.3985 90.7808 45 92.4046 45C94.1147 45 95.9803 45.5351 98 46.6052L94.4242 54.8465C93.0613 54.2728 91.9793 53.9908 91.1868 53.9908C89.6787 53.9908 88.5042 54.6266 87.6687 55.8781C86.4853 57.6515 84.8237 60.9668 84.8237 65.8225C84.8237 69.2149 85.8428 73.2536 87.6173 76C83.1725 76 78.7283 76 74.2835 76C74.8313 65.8984 74.4678 55.7988 73 45.7006Z" fill="#953E37"/>
<path fill-rule="evenodd" clip-rule="evenodd" d="M28.0001 43C37.3873 43 45 50.3889 45 59.5001C45 68.6112 37.3873 76 28.0001 76C18.6127 76 11 68.6112 11 59.5001C11 50.3889 18.6127 43 28.0001 43Z" fill="#953E37"/>
<path d="M78.1721 92.9212L75 82.2837H76.8607L78.536 88.4223L79.1294 90.7076C79.1529 90.5949 79.335 89.8639 79.6721 88.5146L81.334 82.2837H83.1576L84.7386 88.4599L85.2542 90.4856L85.8576 88.4326L87.6713 82.2837H89.4004L86.1072 92.9212H84.2667L82.6014 86.5571L82.18 84.7365L80.0564 92.9212H78.1721ZM98.0502 89.4779L99.8908 89.7238C99.6042 90.8067 99.0682 91.6505 98.2862 92.2483C97.5041 92.846 96.5064 93.1467 95.2895 93.1467C93.759 93.1467 92.5455 92.6684 91.6489 91.712C90.7522 90.7589 90.3039 89.4164 90.3039 87.6913C90.3039 85.9081 90.7555 84.5212 91.6623 83.5374C92.5692 82.5502 93.7456 82.0583 95.1917 82.0583C96.5906 82.0583 97.7334 82.54 98.6199 83.5066C99.5064 84.4734 99.9513 85.833 99.9513 87.5854C99.9513 87.6913 99.948 87.8518 99.9413 88.0636H92.1241C92.1916 89.2284 92.5152 90.1235 93.1017 90.7418C93.6849 91.36 94.4163 91.671 95.2895 91.671C95.9401 91.671 96.4962 91.4968 96.9546 91.1483C97.4165 90.7998 97.7806 90.243 98.0502 89.4779ZM92.2253 86.5879H98.0705C97.9929 85.6929 97.7671 85.0234 97.3997 84.5759C96.8366 83.8824 96.1018 83.5339 95.2018 83.5339C94.386 83.5339 93.7017 83.8107 93.1456 84.3641C92.5927 84.9175 92.286 85.6587 92.2253 86.5879ZM102.099 92.9212V78.246H103.878V92.9212H102.099ZM106.592 92.9212V78.246H108.372V92.9212H106.592ZM111.126 92.9212V82.2837H112.724V83.7936C113.492 82.6355 114.605 82.0583 116.057 82.0583C116.691 82.0583 117.271 82.1744 117.8 82.4033C118.329 82.6322 118.727 82.9362 118.99 83.3085C119.253 83.6809 119.438 84.125 119.543 84.6374C119.607 84.9721 119.641 85.5563 119.641 86.3898V92.9212H117.861V86.4581C117.861 85.7237 117.794 85.1737 117.655 84.8115C117.517 84.4495 117.271 84.1591 116.92 83.9405C116.57 83.7253 116.155 83.616 115.683 83.616C114.928 83.616 114.278 83.8586 113.728 84.347C113.179 84.832 112.906 85.7578 112.906 87.1174V92.9212H111.126ZM129.534 89.4779L131.375 89.7238C131.088 90.8067 130.552 91.6505 129.77 92.2483C128.988 92.846 127.991 93.1467 126.774 93.1467C125.243 93.1467 124.03 92.6684 123.133 91.712C122.236 90.7589 121.788 89.4164 121.788 87.6913C121.788 85.9081 122.24 84.5212 123.146 83.5374C124.053 82.5502 125.23 82.0583 126.676 82.0583C128.075 82.0583 129.217 82.54 130.104 83.5066C130.991 84.4734 131.435 85.833 131.435 87.5854C131.435 87.6913 131.432 87.8518 131.425 88.0636H123.608C123.676 89.2284 123.999 90.1235 124.586 90.7418C125.169 91.36 125.9 91.671 126.774 91.671C127.424 91.671 127.98 91.4968 128.439 91.1483C128.901 90.7998 129.265 90.243 129.534 89.4779ZM123.709 86.5879H129.555C129.477 85.6929 129.251 85.0234 128.884 84.5759C128.321 83.8824 127.586 83.5339 126.686 83.5339C125.87 83.5339 125.186 83.8107 124.63 84.3641C124.077 84.9175 123.77 85.6587 123.709 86.5879ZM132.915 89.7443L134.675 89.4574C134.773 90.1713 135.049 90.7179 135.501 91.1004C135.953 91.4796 136.586 91.671 137.395 91.671C138.214 91.671 138.821 91.5036 139.219 91.1654C139.613 90.8306 139.812 90.4343 139.812 89.9801C139.812 89.5736 139.634 89.2524 139.28 89.0202C139.03 88.8596 138.423 88.658 137.459 88.4086C136.158 88.0773 135.258 87.7903 134.753 87.5478C134.25 87.3019 133.869 86.9671 133.61 86.5366C133.35 86.1097 133.219 85.6349 133.219 85.1156C133.219 84.6408 133.327 84.2036 133.539 83.8004C133.755 83.3974 134.045 83.0626 134.412 82.7961C134.688 82.5912 135.066 82.4169 135.541 82.2735C136.02 82.13 136.529 82.0583 137.075 82.0583C137.898 82.0583 138.619 82.1778 139.239 82.4203C139.863 82.6595 140.321 82.9874 140.618 83.3974C140.911 83.8107 141.117 84.3606 141.228 85.0507L139.489 85.2967C139.411 84.7433 139.182 84.3094 138.804 83.9986C138.427 83.6877 137.894 83.5339 137.203 83.5339C136.391 83.5339 135.808 83.6707 135.46 83.9439C135.113 84.2172 134.938 84.5382 134.938 84.9038C134.938 85.1361 135.009 85.3479 135.154 85.5358C135.299 85.7271 135.524 85.8876 135.835 86.014C136.013 86.0824 136.532 86.2361 137.402 86.4752C138.656 86.8134 139.532 87.0935 140.031 87.3087C140.53 87.5239 140.921 87.8416 141.204 88.2515C141.491 88.6648 141.632 89.1772 141.632 89.7922C141.632 90.3899 141.461 90.9535 141.113 91.4831C140.766 92.0125 140.267 92.4225 139.617 92.7128C138.963 93.0033 138.225 93.1467 137.402 93.1467C136.04 93.1467 134.999 92.8597 134.284 92.2893C133.569 91.7154 133.114 90.8682 132.915 89.7443ZM143.028 89.7443L144.788 89.4574C144.885 90.1713 145.162 90.7179 145.614 91.1004C146.065 91.4796 146.699 91.671 147.508 91.671C148.327 91.671 148.934 91.5036 149.332 91.1654C149.726 90.8306 149.925 90.4343 149.925 89.9801C149.925 89.5736 149.746 89.2524 149.392 89.0202C149.143 88.8596 148.536 88.658 147.572 88.4086C146.271 88.0773 145.371 87.7903 144.865 87.5478C144.363 87.3019 143.982 86.9671 143.723 86.5366C143.463 86.1097 143.331 85.6349 143.331 85.1156C143.331 84.6408 143.439 84.2036 143.652 83.8004C143.867 83.3974 144.157 83.0626 144.525 82.7961C144.801 82.5912 145.179 82.4169 145.654 82.2735C146.133 82.13 146.642 82.0583 147.188 82.0583C148.01 82.0583 148.732 82.1778 149.352 82.4203C149.976 82.6595 150.434 82.9874 150.731 83.3974C151.024 83.8107 151.23 84.3606 151.341 85.0507L149.601 85.2967C149.524 84.7433 149.295 84.3094 148.917 83.9986C148.54 83.6877 148.007 83.5339 147.316 83.5339C146.504 83.5339 145.92 83.6707 145.573 83.9439C145.226 84.2172 145.051 84.5382 145.051 84.9038C145.051 85.1361 145.121 85.3479 145.266 85.5358C145.411 85.7271 145.637 85.8876 145.947 86.014C146.126 86.0824 146.645 86.2361 147.515 86.4752C148.769 86.8134 149.645 87.0935 150.144 87.3087C150.643 87.5239 151.034 87.8416 151.317 88.2515C151.604 88.6648 151.745 89.1772 151.745 89.7922C151.745 90.3899 151.573 90.9535 151.226 91.4831C150.879 92.0125 150.38 92.4225 149.729 92.7128C149.076 93.0033 148.337 93.1467 147.515 93.1467C146.153 93.1467 145.111 92.8597 144.397 92.2893C143.682 91.7154 143.227 90.8682 143.028 89.7443ZM167.754 91.1791C167.167 91.8349 166.527 92.3268 165.836 92.6548C165.145 92.9827 164.396 93.1467 163.591 93.1467C162.107 93.1467 160.931 92.6411 160.061 91.63C159.357 90.8033 159.003 89.8844 159.003 88.8664C159.003 87.9612 159.289 87.1447 159.866 86.417C160.442 85.686 161.305 85.0473 162.448 84.4939C161.791 83.7355 161.352 83.1172 161.133 82.6424C160.914 82.171 160.803 81.7133 160.803 81.2726C160.803 80.3912 161.143 79.6261 161.828 78.977C162.509 78.3245 163.368 78 164.406 78C165.394 78 166.206 78.3075 166.837 78.9224C167.467 79.5372 167.781 80.2785 167.781 81.1394C167.781 82.5365 166.864 83.7322 165.027 84.7193L167.649 88.0534C167.949 87.4658 168.182 86.786 168.347 86.0106L170.187 86.4137C169.871 87.6913 169.442 88.7366 168.9 89.5531C169.564 90.4446 170.319 91.1927 171.158 91.8007L169.965 93.2287C169.25 92.7675 168.515 92.0809 167.754 91.1791ZM164.113 83.5579C164.888 83.0933 165.387 82.6902 165.617 82.3418C165.846 81.9934 165.96 81.6074 165.96 81.1837C165.96 80.6815 165.802 80.2717 165.488 79.954C165.175 79.6362 164.781 79.4758 164.312 79.4758C163.83 79.4758 163.425 79.6329 163.105 79.9472C162.785 80.2615 162.623 80.6475 162.623 81.1052C162.623 81.3306 162.68 81.5732 162.798 81.8225C162.913 82.0753 163.085 82.3418 163.318 82.6219L164.113 83.5579ZM166.621 89.7717L163.378 85.669C162.414 86.2463 161.764 86.7827 161.43 87.2779C161.093 87.7733 160.924 88.2618 160.924 88.7469C160.924 89.3378 161.157 89.9527 161.625 90.5915C162.091 91.2303 162.751 91.548 163.604 91.548C164.137 91.548 164.69 91.384 165.256 91.0527C165.826 90.7213 166.281 90.2942 166.621 89.7717ZM177.87 89.7443L179.629 89.4574C179.727 90.1713 180.004 90.7179 180.455 91.1004C180.907 91.4796 181.541 91.671 182.35 91.671C183.169 91.671 183.776 91.5036 184.173 91.1654C184.568 90.8306 184.767 90.4343 184.767 89.9801C184.767 89.5736 184.588 89.2524 184.234 89.0202C183.985 88.8596 183.378 88.658 182.414 88.4086C181.113 88.0773 180.213 87.7903 179.707 87.5478C179.205 87.3019 178.824 86.9671 178.564 86.5366C178.305 86.1097 178.173 85.6349 178.173 85.1156C178.173 84.6408 178.281 84.2036 178.493 83.8004C178.709 83.3974 178.999 83.0626 179.366 82.7961C179.643 82.5912 180.02 82.4169 180.496 82.2735C180.974 82.13 181.483 82.0583 182.029 82.0583C182.852 82.0583 183.573 82.1778 184.194 82.4203C184.817 82.6595 185.276 82.9874 185.572 83.3974C185.865 83.8107 186.071 84.3606 186.182 85.0507L184.443 85.2967C184.365 84.7433 184.136 84.3094 183.759 83.9986C183.381 83.6877 182.849 83.5339 182.157 83.5339C181.345 83.5339 180.762 83.6707 180.415 83.9439C180.068 84.2172 179.892 84.5382 179.892 84.9038C179.892 85.1361 179.963 85.3479 180.108 85.5358C180.253 85.7271 180.479 85.8876 180.789 86.014C180.968 86.0824 181.487 86.2361 182.356 86.4752C183.61 86.8134 184.487 87.0935 184.986 87.3087C185.485 87.5239 185.876 87.8416 186.159 88.2515C186.445 88.6648 186.587 89.1772 186.587 89.7922C186.587 90.3899 186.415 90.9535 186.068 91.4831C185.721 92.0125 185.222 92.4225 184.571 92.7128C183.917 93.0033 183.179 93.1467 182.356 93.1467C180.995 93.1467 179.953 92.8597 179.238 92.2893C178.524 91.7154 178.069 90.8682 177.87 89.7443ZM188.69 97V82.2837H190.308V83.6808C190.689 83.1411 191.121 82.7346 191.603 82.4648C192.082 82.1949 192.665 82.0583 193.349 82.0583C194.246 82.0583 195.034 82.2905 195.719 82.7586C196.403 83.2231 196.919 83.8824 197.269 84.7296C197.617 85.5802 197.792 86.5094 197.792 87.5239C197.792 88.6068 197.6 89.5838 197.215 90.4548C196.831 91.3225 196.272 91.9886 195.537 92.4532C194.805 92.9144 194.033 93.1467 193.224 93.1467C192.631 93.1467 192.098 93.0203 191.63 92.7675C191.158 92.5147 190.774 92.1971 190.47 91.811V97H188.69ZM190.308 87.6674C190.308 89.0304 190.581 90.0381 191.124 90.6906C191.67 91.343 192.331 91.671 193.106 91.671C193.895 91.671 194.569 91.3327 195.129 90.6564C195.692 89.9801 195.971 88.9347 195.971 87.517C195.971 86.1643 195.699 85.1532 195.149 84.4802C194.6 83.8072 193.946 83.4724 193.184 83.4724C192.429 83.4724 191.761 83.8312 191.181 84.5451C190.598 85.2625 190.308 86.301 190.308 87.6674ZM206.796 91.589C206.135 92.1594 205.498 92.5591 204.888 92.7948C204.277 93.0306 203.623 93.1467 202.922 93.1467C201.769 93.1467 200.883 92.8632 200.263 92.2926C199.642 91.7255 199.332 90.998 199.332 90.1133C199.332 89.5939 199.45 89.1192 199.683 88.6887C199.919 88.2584 200.226 87.9167 200.603 87.6571C200.984 87.3975 201.409 87.1994 201.884 87.0662C202.235 86.9739 202.764 86.8851 203.468 86.7963C204.904 86.6255 205.966 86.4171 206.644 86.1779C206.651 85.932 206.654 85.7749 206.654 85.71C206.654 84.9789 206.485 84.4632 206.148 84.1625C205.693 83.756 205.016 83.5545 204.119 83.5545C203.28 83.5545 202.659 83.7048 202.262 84.002C201.861 84.2991 201.567 84.8252 201.375 85.5836L199.636 85.3376C199.794 84.5827 200.054 83.9713 200.418 83.5066C200.782 83.0421 201.308 82.6868 201.995 82.434C202.68 82.1847 203.478 82.0583 204.382 82.0583C205.279 82.0583 206.01 82.1642 206.573 82.3794C207.133 82.5945 207.547 82.861 207.81 83.1856C208.073 83.5101 208.258 83.9199 208.366 84.4153C208.424 84.7228 208.454 85.2762 208.454 86.0721V88.4633C208.454 90.1337 208.491 91.1893 208.565 91.6368C208.636 92.0843 208.784 92.5113 209 92.9212H207.139C206.961 92.542 206.846 92.098 206.796 91.589ZM206.654 87.5922C206.007 87.8587 205.036 88.0841 203.741 88.2685C203.007 88.3745 202.487 88.4941 202.184 88.6273C201.881 88.7605 201.648 88.9552 201.483 89.2079C201.318 89.4642 201.234 89.7477 201.234 90.062C201.234 90.5368 201.412 90.9365 201.773 91.2542C202.134 91.5719 202.659 91.7324 203.35 91.7324C204.035 91.7324 204.645 91.5821 205.181 91.2782C205.713 90.9775 206.108 90.5642 206.357 90.0415C206.549 89.635 206.644 89.0372 206.644 88.2482L206.654 87.5922Z" fill="#953E37"/>
</svg>
