<svg width="20" height="24" viewBox="0 0 20 24" fill="none" xmlns="http://www.w3.org/2000/svg">
<path d="M20 19.5349H0V17.3643H1V9.80108C1 4.38775 5.03 0 10 0C14.97 0 19 4.38775 19 9.80108V17.3643H20V19.5349ZM3 17.3643H17V9.80108C17 5.58698 13.866 2.17054 10 2.17054C6.134 2.17054 3 5.58698 3 9.80108V17.3643ZM7.5 20.6202H12.5C12.5 21.3397 12.2366 22.0298 11.7678 22.5387C11.2989 23.0475 10.663 23.3333 10 23.3333C9.33696 23.3333 8.70107 23.0475 8.23223 22.5387C7.76339 22.0298 7.5 21.3397 7.5 20.6202V20.6202Z" fill="#953E37"/>
</svg>
