<svg width="23" height="22" viewBox="0 0 23 22" fill="none" xmlns="http://www.w3.org/2000/svg">
<path d="M20 12.1384V18.3333H20.9167V20.1666H2.58335V18.3333H3.50002V12.1384C2.93569 11.7617 2.47309 11.2516 2.15327 10.6532C1.83345 10.0548 1.66631 9.38674 1.66669 8.70825C1.66669 7.95017 1.87202 7.21958 2.24694 6.59717L4.73294 2.29159C4.81339 2.15224 4.9291 2.03652 5.06845 1.95607C5.2078 1.87561 5.36587 1.83326 5.52677 1.83325H17.9742C18.1351 1.83326 18.2932 1.87561 18.4325 1.95607C18.5719 2.03652 18.6876 2.15224 18.768 2.29159L21.2449 6.58342C21.7917 7.49172 21.9675 8.57582 21.7356 9.61038C21.5038 10.6449 20.8822 11.5504 20 12.1384ZM18.1667 12.8076C17.5364 12.8783 16.8983 12.8026 16.3021 12.5863C15.7059 12.3701 15.1676 12.0192 14.7292 11.5609C14.3444 11.9634 13.882 12.2837 13.37 12.5026C12.8579 12.7214 12.3069 12.8342 11.75 12.8342C11.1933 12.8344 10.6423 12.7219 10.1303 12.5034C9.61827 12.2849 9.15582 11.9649 8.77085 11.5628C8.33235 12.0209 7.79403 12.3716 7.19781 12.5877C6.60159 12.8038 5.96355 12.8793 5.33335 12.8085V18.3333H18.1667V12.8085V12.8076ZM6.0566 3.66659L3.82635 7.5285C3.60963 8.06397 3.60313 8.66153 3.80814 9.20158C4.01315 9.74164 4.41456 10.1844 4.93202 10.4411C5.44948 10.6979 6.04482 10.7497 6.59889 10.5863C7.15295 10.4229 7.62487 10.0563 7.92019 9.55983C8.22727 8.79258 9.31352 8.79258 9.62152 9.55983C9.79138 9.98555 10.085 10.3506 10.4644 10.6077C10.8439 10.8648 11.2917 11.0023 11.75 11.0023C12.2084 11.0023 12.6562 10.8648 13.0356 10.6077C13.4151 10.3506 13.7087 9.98555 13.8785 9.55983C14.1856 8.79258 15.2719 8.79258 15.5799 9.55983C15.6988 9.85266 15.8771 10.1177 16.1034 10.3383C16.3297 10.559 16.5993 10.7304 16.895 10.8418C17.1908 10.9532 17.5064 11.0023 17.8221 10.9859C18.1377 10.9695 18.4465 10.8879 18.7292 10.7464C19.0118 10.6049 19.2621 10.4064 19.4643 10.1635C19.6665 9.92057 19.8163 9.63845 19.9042 9.33486C19.9921 9.03127 20.0163 8.71277 19.9752 8.39938C19.9341 8.086 19.8287 7.7845 19.6654 7.51383L17.4425 3.66659H6.05752H6.0566Z" fill="#595959"/>
</svg>
