<svg width="22" height="22" viewBox="0 0 22 22" fill="none" xmlns="http://www.w3.org/2000/svg">
<path d="M17.4167 19.25H4.58335C4.34024 19.25 4.10708 19.1534 3.93517 18.9815C3.76326 18.8096 3.66669 18.5765 3.66669 18.3333V10.0833H0.916687L10.3831 1.47767C10.5519 1.32411 10.7718 1.23901 11 1.23901C11.2282 1.23901 11.4482 1.32411 11.6169 1.47767L21.0834 10.0833H18.3334V18.3333C18.3334 18.5765 18.2368 18.8096 18.0649 18.9815C17.893 19.1534 17.6598 19.25 17.4167 19.25ZM5.50002 17.4167H16.5V8.39392L11 3.39442L5.50002 8.39392V17.4167ZM7.33335 13.75H14.6667V15.5833H7.33335V13.75Z" fill="#595959"/>
</svg>
