<svg width="23" height="22" viewBox="0 0 23 22" fill="none" xmlns="http://www.w3.org/2000/svg">
<path d="M16.2917 19.25C15.4408 19.25 14.6247 18.912 14.023 18.3103C13.4214 17.7086 13.0833 16.8926 13.0833 16.0417C13.0833 15.1908 13.4214 14.3747 14.023 13.773C14.6247 13.1714 15.4408 12.8333 16.2917 12.8333C17.1426 12.8333 17.9586 13.1714 18.5603 13.773C19.162 14.3747 19.5 15.1908 19.5 16.0417C19.5 16.8926 19.162 17.7086 18.5603 18.3103C17.9586 18.912 17.1426 19.25 16.2917 19.25ZM16.2917 17.4167C16.6563 17.4167 17.0061 17.2718 17.2639 17.0139C17.5218 16.7561 17.6667 16.4063 17.6667 16.0417C17.6667 15.677 17.5218 15.3273 17.2639 15.0694C17.0061 14.8115 16.6563 14.6667 16.2917 14.6667C15.927 14.6667 15.5773 14.8115 15.3194 15.0694C15.0615 15.3273 14.9167 15.677 14.9167 16.0417C14.9167 16.4063 15.0615 16.7561 15.3194 17.0139C15.5773 17.2718 15.927 17.4167 16.2917 17.4167ZM6.20833 9.16667C5.78701 9.16667 5.36981 9.08368 4.98056 8.92245C4.5913 8.76121 4.23762 8.52489 3.9397 8.22697C3.64178 7.92905 3.40545 7.57536 3.24422 7.18611C3.08299 6.79686 3 6.37966 3 5.95833C3 5.53701 3.08299 5.11981 3.24422 4.73056C3.40545 4.3413 3.64178 3.98762 3.9397 3.6897C4.23762 3.39178 4.5913 3.15545 4.98056 2.99422C5.36981 2.83299 5.78701 2.75 6.20833 2.75C7.05924 2.75 7.87529 3.08802 8.47697 3.6897C9.07865 4.29138 9.41667 5.10743 9.41667 5.95833C9.41667 6.80924 9.07865 7.62529 8.47697 8.22697C7.87529 8.82865 7.05924 9.16667 6.20833 9.16667ZM6.20833 7.33333C6.57301 7.33333 6.92274 7.18847 7.18061 6.93061C7.43847 6.67274 7.58333 6.32301 7.58333 5.95833C7.58333 5.59366 7.43847 5.24392 7.18061 4.98606C6.92274 4.7282 6.57301 4.58333 6.20833 4.58333C5.84366 4.58333 5.49392 4.7282 5.23606 4.98606C4.9782 5.24392 4.83333 5.59366 4.83333 5.95833C4.83333 6.32301 4.9782 6.67274 5.23606 6.93061C5.49392 7.18847 5.84366 7.33333 6.20833 7.33333ZM17.7317 3.22208L19.0279 4.51825L4.76917 18.7779L3.473 17.4817L17.7308 3.22208H17.7317Z" fill="#595959"/>
</svg>
