<svg width="23" height="22" viewBox="0 0 23 22" fill="none" xmlns="http://www.w3.org/2000/svg">
<path d="M4.16665 14.6666V3.66659H2.33331V1.83325H5.08331C5.32643 1.83325 5.55959 1.92983 5.73149 2.10174C5.9034 2.27365 5.99998 2.5068 5.99998 2.74992V13.7499H17.4015L19.2348 6.41659H7.83331V4.58325H20.41C20.5493 4.58326 20.6868 4.61502 20.812 4.67614C20.9373 4.73726 21.0469 4.82612 21.1326 4.93597C21.2183 5.04582 21.2779 5.17377 21.3068 5.31009C21.3356 5.4464 21.333 5.58751 21.2991 5.72267L19.0075 14.8893C18.9578 15.0876 18.8434 15.2635 18.6823 15.3892C18.5212 15.515 18.3227 15.5832 18.1183 15.5833H5.08331C4.8402 15.5833 4.60704 15.4867 4.43513 15.3148C4.26322 15.1429 4.16665 14.9097 4.16665 14.6666ZM5.99998 21.0833C5.51375 21.0833 5.04743 20.8901 4.70362 20.5463C4.3598 20.2025 4.16665 19.7361 4.16665 19.2499C4.16665 18.7637 4.3598 18.2974 4.70362 17.9536C5.04743 17.6097 5.51375 17.4166 5.99998 17.4166C6.48621 17.4166 6.95253 17.6097 7.29634 17.9536C7.64016 18.2974 7.83331 18.7637 7.83331 19.2499C7.83331 19.7361 7.64016 20.2025 7.29634 20.5463C6.95253 20.8901 6.48621 21.0833 5.99998 21.0833ZM17 21.0833C16.5138 21.0833 16.0474 20.8901 15.7036 20.5463C15.3598 20.2025 15.1666 19.7361 15.1666 19.2499C15.1666 18.7637 15.3598 18.2974 15.7036 17.9536C16.0474 17.6097 16.5138 17.4166 17 17.4166C17.4862 17.4166 17.9525 17.6097 18.2963 17.9536C18.6402 18.2974 18.8333 18.7637 18.8333 19.2499C18.8333 19.7361 18.6402 20.2025 18.2963 20.5463C17.9525 20.8901 17.4862 21.0833 17 21.0833Z" fill="#595959"/>
</svg>
