<svg width="24" height="24" viewBox="0 0 24 24" fill="none" xmlns="http://www.w3.org/2000/svg">
<path d="M18 16.7209H6V15.4186H6.6V10.8807C6.6 7.63265 9.018 5 12 5C14.982 5 17.4 7.63265 17.4 10.8807V15.4186H18V16.7209ZM7.8 15.4186H16.2V10.8807C16.2 8.35219 14.3196 6.30233 12 6.30233C9.6804 6.30233 7.8 8.35219 7.8 10.8807V15.4186ZM10.5 17.3721H13.5C13.5 17.8038 13.342 18.2179 13.0607 18.5232C12.7794 18.8285 12.3978 19 12 19C11.6022 19 11.2206 18.8285 10.9393 18.5232C10.658 18.2179 10.5 17.8038 10.5 17.3721Z" fill="#8C8C8C"/>
</svg>
