<svg width="20" height="13" viewBox="0 0 20 13" fill="none" xmlns="http://www.w3.org/2000/svg">
<path d="M4.95312 8.22656L7.96094 0.625H9.69531L5.67188 10.1016C5.55729 10.3672 5.42969 10.625 5.28906 10.875C5.14844 11.1198 4.97656 11.3385 4.77344 11.5312C4.57031 11.724 4.31771 11.8776 4.01562 11.9922C3.71875 12.1068 3.34896 12.1641 2.90625 12.1641C2.78125 12.1641 2.63281 12.1562 2.46094 12.1406C2.28906 12.1302 2.17708 12.1172 2.125 12.1016L2.17188 10.8984C2.22917 10.9089 2.34115 10.9193 2.50781 10.9297C2.67448 10.9349 2.79688 10.9375 2.875 10.9375C3.17188 10.9375 3.40625 10.8776 3.57812 10.7578C3.75 10.638 3.88802 10.487 3.99219 10.3047C4.10156 10.1172 4.20052 9.92708 4.28906 9.73438L4.95312 8.22656ZM2.39844 0.625L5.5625 7.71094L5.9375 9.10938L4.67188 9.20312L0.710938 0.625H2.39844ZM14.9844 1.63281L11.2188 12H9.67969L14.0156 0.625H15.0078L14.9844 1.63281ZM18.1406 12L14.3672 1.63281L14.3438 0.625H15.3359L19.6875 12H18.1406ZM17.9453 7.78906V9.02344H11.5547V7.78906H17.9453Z" fill="white"/>
</svg>
