<svg width="43" height="47" viewBox="0 0 43 47" fill="none" xmlns="http://www.w3.org/2000/svg">
<path d="M13.2313 32.3218L10.4485 32.6147L14.7451 24.9004L3.32013 24.9007V44.3818C3.32013 45.5047 4.1988 46.3838 5.32204 46.3838H19.7742V25.3891L14.452 34.8611L13.2313 32.3218Z" fill="#953E37"/>
<path d="M31.9309 32.615L29.1477 32.3708L27.9271 34.8607L22.6053 25.3887V46.3834H37.0574C38.1803 46.3834 39.0593 45.4556 39.0593 44.3815V24.9004H27.6343L31.9309 32.615Z" fill="#953E37"/>
<path d="M0 15.9656V19.9694C0 21.0923 0.927759 22.0201 2.05064 22.0201H19.7252V13.915H2.05064C0.927759 13.915 0 14.8424 0 15.9657V15.9656Z" fill="#953E37"/>
<path d="M40.3287 13.9151H22.6053V22.0201H40.2799C41.4028 22.0201 42.3305 21.0924 42.3305 19.9695V15.9657C42.3796 14.8424 41.4519 13.915 40.329 13.915L40.3287 13.9151Z" fill="#953E37"/>
<path d="M12.9874 11.6691H29.3437C32.615 11.6691 35.2517 9.03277 35.2517 5.85889C35.2514 2.68545 32.6637 0 29.3921 0C24.949 0 22.9471 2.78319 21.1897 5.81024C19.4807 2.78319 17.4301 0 12.9873 0C9.71606 0 7.07935 2.63637 7.07935 5.81024C7.07935 8.98368 9.71571 11.6691 12.9873 11.6691H12.9874ZM23.3383 8.44661C25.2425 4.98022 26.4143 3.17353 29.3924 3.17353C30.9059 3.17353 32.1756 4.34541 32.1756 5.85898C32.1756 7.37255 30.955 8.54443 29.3924 8.54443H23.3383V8.44669V8.44661ZM12.9874 3.17353C15.9657 3.17353 17.0886 4.97996 18.9928 8.44661C18.9928 8.44661 18.9928 8.49531 19.0415 8.49531L12.9874 8.49565C11.4739 8.49565 10.2042 7.32377 10.2042 5.8102C10.2042 4.29663 11.4735 3.17348 12.9874 3.17348L12.9874 3.17353Z" fill="#953E37"/>
</svg>
