<svg width="47" height="47" viewBox="0 0 47 47" fill="none" xmlns="http://www.w3.org/2000/svg">
<path d="M13.8237 5.03569e-05C13.4795 -0.00158884 13.1487 0.134797 12.9055 0.378054C12.6619 0.621639 12.5258 0.952442 12.5271 1.29665V20.6572C12.5281 21.0001 12.6652 21.3283 12.9084 21.5699C13.1517 21.8119 13.4808 21.9466 13.8237 21.9453H33.1867C33.5273 21.9437 33.8539 21.8073 34.0948 21.566C34.3354 21.3247 34.4708 20.9978 34.4718 20.6572V1.29666C34.4731 0.954397 34.3387 0.62524 34.0978 0.382268C33.8568 0.13901 33.529 0.0016366 33.1867 0H26.9243V7.7109C26.9217 8.42396 26.3437 8.99869 25.6306 8.99601H21.3706C20.6615 8.99371 20.0852 8.42031 20.0828 7.7109V0L13.8237 5.03569e-05ZM22.668 5.03569e-05V6.41434H24.3436V5.03569e-05H22.668ZM1.29665 25.0551C0.952742 25.0535 0.622612 25.1892 0.378987 25.4321C0.135731 25.6751 -0.000652291 26.0049 2.34584e-06 26.3488V45.7119C0.00065799 46.0548 0.138022 46.3833 0.381287 46.6249C0.624543 46.8665 0.953699 47.0016 1.2966 47H20.6571C20.9983 46.9993 21.3255 46.8633 21.5668 46.622C21.8081 46.3804 21.9442 46.0532 21.9452 45.7119V26.3488C21.9458 26.0062 21.8104 25.6777 21.5688 25.4351C21.3275 25.1925 20.9993 25.0558 20.6571 25.0551H14.3976V32.7631C14.395 33.4761 13.814 34.0509 13.101 34.0482H8.84393C8.13448 34.0456 7.55849 33.4725 7.5558 32.7631V25.0551L1.29665 25.0551ZM10.141 25.0551V31.4665H11.8162V25.0551H10.141ZM26.3516 25.0551C26.0077 25.0535 25.6776 25.1892 25.4343 25.4321C25.1907 25.6747 25.0543 26.0049 25.055 26.3488V45.7119C25.0559 46.0548 25.193 46.3833 25.4362 46.6249C25.6795 46.8665 26.009 47.0016 26.3519 47H45.7149C46.0558 46.9983 46.382 46.8623 46.623 46.621C46.8636 46.3797 46.9993 46.0528 47 45.7119V26.3488C47.0007 26.0069 46.8659 25.6787 46.6249 25.4361C46.384 25.1935 46.0568 25.0565 45.7148 25.0551H39.4553V32.7631C39.4527 33.4762 38.8718 34.0509 38.1587 34.0482H33.8991C33.1896 34.0456 32.6136 33.4725 32.6109 32.7631V25.0551L26.3516 25.0551ZM35.1959 25.0551V31.4665H36.8741V25.0551H35.1959Z" fill="#953E37"/>
</svg>
