<svg width="45" height="47" viewBox="0 0 45 47" fill="none" xmlns="http://www.w3.org/2000/svg">
<path d="M25.672 4.35257C25.672 6.75653 23.7233 8.70514 21.3194 8.70514C18.9156 8.70514 16.9669 6.75643 16.9669 4.35257C16.9669 1.94871 18.9156 0 21.3194 0C23.7233 0 25.672 1.94871 25.672 4.35257Z" fill="#953E37"/>
<path d="M39.6375 18.3189C39.6375 20.7228 37.6888 22.6715 35.2849 22.6715C32.8814 22.6715 30.9324 20.7227 30.9324 18.3189C30.9324 15.915 32.8815 13.9663 35.2849 13.9663C37.6889 13.9663 39.6375 15.915 39.6375 18.3189Z" fill="#953E37" fill-opacity="0.88"/>
<path d="M17.9664 21.6707C18.3388 22.0431 18.8283 22.2284 19.3141 22.2284C19.8036 22.2284 20.2912 22.0432 20.6637 21.6707L38.6352 3.69637C39.3786 2.95149 39.3786 1.74547 38.6352 1.00056C37.8918 0.255673 36.6843 0.255673 35.9394 1.00056L17.966 18.9758C17.2226 19.7207 17.2226 20.9265 17.966 21.6713L17.9664 21.6707Z" fill="#953E37"/>
<path d="M4.89544 28.0977H1.95243C0.873474 28.0977 0 28.9712 0 30.0486V44.1986C0 45.2775 0.873502 46.151 1.95243 46.151H4.89544C5.97439 46.151 6.84787 45.2775 6.84787 44.1986V30.0486C6.84787 28.9711 5.97437 28.0977 4.89544 28.0977V28.0977Z" fill="#953E37"/>
<path d="M41.7562 31.957C27.7226 39.3693 22.0496 35.209 21.2622 33.9046C27.6042 35.533 30.0443 34.0701 30.3698 33.2547C30.6937 32.4431 31.3451 30.1649 27.6039 29.8375C23.866 29.5102 18.0102 27.3989 14.9189 27.2386C13.0265 27.1369 10.9487 29.1109 9.61743 30.6559V44.1598C13.048 44.5706 21.9751 45.5828 25.7335 45.4508C30.4318 45.2886 40.941 38.4561 43.3796 35.5317C45.8185 32.6073 42.8539 31.3781 41.7567 31.9575L41.7562 31.957Z" fill="#FFB7B7"/>
</svg>
